<?xml version="1.0" encoding="UTF-8"?>
<svg width="1110px" height="297px" viewBox="0 0 1110 297" version="1.1" xmlns="http://www.w3.org/2000/svg" xmlns:xlink="http://www.w3.org/1999/xlink">
    <!-- Generator: Sketch 52.6 (67491) - http://www.bohemiancoding.com/sketch -->
    <title>logo</title>
    <desc>Created with Sketch.</desc>
    <defs>
        <linearGradient x1="16.7475388%" y1="-4.17246278%" x2="117.049452%" y2="102.53903%" id="linearGradient-1">
            <stop stop-color="#F37B2A" offset="25.14%"></stop>
            <stop stop-color="#FFCC27" offset="100%"></stop>
        </linearGradient>
        <linearGradient x1="-4.00759997%" y1="2.37072944%" x2="113.503904%" y2="72.3392293%" id="linearGradient-2">
            <stop stop-color="#F48222" offset="0%"></stop>
            <stop stop-color="#F58729" stop-opacity="0" offset="45.94%"></stop>
            <stop stop-color="#FFCF28" stop-opacity="0" offset="99.2%"></stop>
        </linearGradient>
        <linearGradient x1="54.3946842%" y1="47.8278526%" x2="54.3946842%" y2="47.8278526%" id="linearGradient-3">
            <stop stop-color="#EE3D2C" offset="0%"></stop>
            <stop stop-color="#E4DE2D" offset="100%"></stop>
        </linearGradient>
        <linearGradient x1="21.9405899%" y1="17.8207891%" x2="136.478091%" y2="86.0184404%" id="linearGradient-4">
            <stop stop-color="#F7962C" offset="30.07%"></stop>
            <stop stop-color="#FFCC27" offset="100%"></stop>
        </linearGradient>
        <linearGradient x1="22.9604542%" y1="-16.7089045%" x2="86.3909414%" y2="134.504676%" id="linearGradient-5">
            <stop stop-color="#F05B2A" offset="0.1322115%"></stop>
            <stop stop-color="#F89F2B" offset="100%"></stop>
        </linearGradient>
        <linearGradient x1="0.0629524977%" y1="51.4961228%" x2="99.9353854%" y2="48.4281892%" id="linearGradient-6">
            <stop stop-color="#F1662A" offset="0%"></stop>
            <stop stop-color="#FBB22A" offset="94.35%"></stop>
            <stop stop-color="#FCB62A" offset="99.2%"></stop>
        </linearGradient>
        <linearGradient x1="10.5559829%" y1="49.7937396%" x2="97.8519198%" y2="52.0762915%" id="linearGradient-7">
            <stop stop-color="#F89F2B" offset="0%"></stop>
            <stop stop-color="#F1652A" offset="99.87%"></stop>
        </linearGradient>
        <linearGradient x1="27.0536622%" y1="21.913127%" x2="90.1878152%" y2="92.6271855%" id="linearGradient-8">
            <stop stop-color="#F1692A" offset="0.2624199%"></stop>
            <stop stop-color="#F89F2B" offset="100%"></stop>
        </linearGradient>
        <linearGradient x1="0.27254902%" y1="50.1053507%" x2="966.675087%" y2="48.8458424%" id="linearGradient-9">
            <stop stop-color="#C54227" offset="0%"></stop>
            <stop stop-color="#F16522" offset="100%"></stop>
        </linearGradient>
        <linearGradient x1="-79.3793349%" y1="50.1869754%" x2="584.018052%" y2="48.9265557%" id="linearGradient-10">
            <stop stop-color="#C54227" offset="0%"></stop>
            <stop stop-color="#F16522" offset="100%"></stop>
        </linearGradient>
        <linearGradient x1="-541.544164%" y1="50.8878632%" x2="94.5664084%" y2="49.9513804%" id="linearGradient-11">
            <stop stop-color="#C54227" offset="0%"></stop>
            <stop stop-color="#F16522" offset="100%"></stop>
        </linearGradient>
        <linearGradient x1="-412.438814%" y1="50.895275%" x2="210.819771%" y2="49.6668547%" id="linearGradient-12">
            <stop stop-color="#C54227" offset="0%"></stop>
            <stop stop-color="#F16522" offset="100%"></stop>
        </linearGradient>
        <linearGradient x1="-185.473776%" y1="50.3526146%" x2="426.55756%" y2="49.4135849%" id="linearGradient-13">
            <stop stop-color="#C54227" offset="0%"></stop>
            <stop stop-color="#F16522" offset="100%"></stop>
        </linearGradient>
        <linearGradient x1="-301.827377%" y1="50.6771509%" x2="321.431133%" y2="49.4486601%" id="linearGradient-14">
            <stop stop-color="#C54227" offset="0%"></stop>
            <stop stop-color="#F16522" offset="100%"></stop>
        </linearGradient>
    </defs>
    <g id="Page-1" stroke="none" stroke-width="1" fill="none" fill-rule="evenodd">
        <g id="logo">
            <g id="Group">
                <polyline id="Path" fill="url(#linearGradient-1)" points="100.4 143.7 196.8 238.7 197.1 297 42.4 144.1 100.7 143.7"></polyline>
                <path d="M178.5,71.8 C178.3,32.3 146.1,0.5 106.6,0.7 C77.9,0.9 53.3,17.9 42.1,42.3 L107.9,41.9 C124.2,42.3 137.3,55.6 137.4,72 C137.5,88.4 124.6,101.8 108.3,102.4 L108.3,102.5 L1.1,103.2 L42.4,144 L109.2,143.6 C147.9,142.5 178.7,110.7 178.5,71.8 Z" id="Path" fill="#F6912F"></path>
                <path d="M168.2,109.2 C161,121.2 150.3,130.8 137.6,136.9 L196.6,195.1 L196.3,136.8 L168.2,109.2 Z" id="Path" fill="url(#linearGradient-2)"></path>
                <path d="" id="Path" fill="url(#linearGradient-3)"></path>
                <g transform="translate(41.000000, 41.000000)" fill="#47290D" id="Path">
                    <polygon points="0.8 1.1 0.8 1.1 0.7 1"></polygon>
                </g>
                <path d="M168.2,109.2 C161,121.2 150.3,130.8 137.6,136.9 L196.6,195.1 L196.3,136.8 L168.2,109.2 Z" id="Path" fill="url(#linearGradient-4)"></path>
                <polygon id="Path" fill="url(#linearGradient-5)" points="100.5 143.7 42.4 144.1 1.1 103.2 61 102.9"></polygon>
                <polygon id="Path" fill="url(#linearGradient-6)" points="216.5 41.3 41.8 42.4 0.3 1.4 175 0.3"></polygon>
                <path d="M42.1,42.3 L107.9,41.9 C107.9,41.9 107.9,41.9 107.9,41.9 L171.6,41.5 C160.1,17.2 135.2,0.5 106.6,0.6 C77.9,0.9 53.3,17.9 42.1,42.3 Z" id="Path" fill="url(#linearGradient-7)"></path>
                <path d="M137.1,78 C134.3,91.5 122.5,101.9 108.3,102.3 L103.1,102.6 L137.3,136.8 C150.1,130.9 160.9,121.3 168.2,109.4 L137.1,78 Z" id="Path" fill="url(#linearGradient-8)"></path>
            </g>
            <g id="Group" transform="translate(264.000000, 0.000000)">
                <path d="M84.6,49 C82.5,48.5 80.5,48.3 78.7,48.3 C74,48.3 69.5,49 65.2,50.4 C60.9,51.8 56.8,53.7 53,56.3 C49.2,58.8 45.8,61.9 42.8,65.4 C39.8,69 37.5,72.8 35.8,77 L35.3,77 L35.3,54.7 C35.3,53.2 34,51.9 32.5,51.9 L2.9,51.9 C1.4,51.9 0.1,53.2 0.1,54.7 L0.1,183.8 C0.1,185.3 1.4,186.6 2.9,186.6 L34.3,186.6 C35.8,186.6 37.1,185.3 37.1,183.8 L37.1,125.9 C37.1,119.8 37.7,114.2 38.9,109 C40.1,103.8 42.2,99.2 45,95.3 C47.9,91.4 51.6,88.3 56.3,86 C61,83.7 66.7,82.6 73.5,82.6 C75.8,82.6 78.1,82.7 80.5,83 C81.6,83.1 82.6,83.2 83.6,83.4 C85.3,83.6 86.8,82.3 86.8,80.6 L86.8,51.8 C86.7,50.5 85.8,49.3 84.6,49 Z" id="Path" fill="url(#linearGradient-9)"></path>
                <path d="M225.2,51.9 L191.7,51.9 C190.7,51.9 190,52.7 190,53.6 L190,122.5 C190,136.2 187.7,146.1 183.2,152.1 C178.7,158.1 171.4,161.1 161.3,161.1 C152.4,161.1 146.3,158.4 142.8,152.9 C139.3,147.4 137.6,139.1 137.6,128 L137.6,53.7 C137.6,52.7 136.8,52 135.9,52 L102.3,52 C101.4,52 100.6,52.8 100.6,53.7 L100.6,134.8 C100.6,143.1 101.3,150.7 102.8,157.6 C104.3,164.5 106.8,170.3 110.5,175.1 C114.1,179.9 119.1,183.6 125.5,186.2 C131.8,188.8 140,190.1 149.9,190.1 C157.7,190.1 165.4,188.4 172.8,184.9 C180.3,181.4 186.4,175.8 191,168 L191.8,168 L191.8,185 C191.8,185.9 192.6,186.7 193.5,186.7 L225.2,186.7 C226.2,186.7 226.9,185.9 226.9,185 L226.9,53.7 C226.9,52.7 226.1,51.9 225.2,51.9 Z" id="Path" fill="url(#linearGradient-10)"></path>
                <path d="M845,184 L791,102.7 C790.5,102 790.6,101.1 791.2,100.5 L837.9,55 C839,53.9 838.2,52 836.7,52 L798,52 C797.5,52 797.1,52.2 796.8,52.5 L753.6,97.4 C752.5,98.5 750.6,97.8 750.6,96.2 L750.6,2.3 C750.6,1.3 749.8,0.6 748.9,0.6 L715.3,0.6 C714.4,0.6 713.6,1.4 713.6,2.3 L713.6,184.9 C713.6,185.8 714.4,186.6 715.3,186.6 L748.9,186.6 C749.9,186.6 750.6,185.8 750.6,184.9 L750.6,141 C750.6,140.5 750.8,140.1 751.1,139.8 L763.4,128 C764.2,127.2 765.5,127.4 766.1,128.3 L801.5,185.8 C801.8,186.3 802.4,186.6 803,186.6 L843.6,186.6 C845,186.7 845.8,185.1 845,184 Z" id="Path" fill="url(#linearGradient-11)"></path>
                <path d="M674.7,72.8 C669.2,65.3 662.2,59.4 653.7,54.9 C645.2,50.5 635.2,48.3 623.7,48.3 C613.4,48.3 604.1,50.1 595.7,53.8 C587.3,57.4 580,62.4 573.9,68.8 C567.8,75.1 563.1,82.7 559.8,91.3 C556.5,100 554.8,109.4 554.8,119.4 C554.8,129.8 556.4,139.4 559.6,148.1 C562.8,156.8 567.4,164.3 573.3,170.5 C579.2,176.8 586.4,181.6 594.9,185 C603.4,188.4 613,190.1 623.6,190.1 C638.9,190.1 651.9,186.6 662.7,179.7 C673,173.1 680.7,162.3 685.9,147.3 C686.3,146.2 685.5,145 684.3,145 L655.4,145 C654.7,145 654,145.4 653.8,146.1 C652.4,149.9 649.2,153.5 644.3,156.9 C638.9,160.6 632.5,162.5 625,162.5 C614.6,162.5 606.6,159.8 601,154.4 C595.7,149.3 592.7,141.2 592,130.2 C591.9,129.2 592.7,128.3 593.7,128.3 L687.4,128.3 C688.3,128.3 689.1,127.6 689.1,126.7 C689.6,116.9 688.7,107.4 686.4,98.4 C684.1,88.8 680.2,80.3 674.7,72.8 Z M650,104.8 L593.8,104.8 C592.8,104.8 591.9,103.9 592.1,102.9 C592.4,100.8 592.9,98.5 593.6,96 C594.5,92.7 596.2,89.6 598.5,86.6 C600.8,83.6 604,81.2 607.9,79.2 C611.8,77.2 616.7,76.2 622.6,76.2 C631.6,76.2 638.4,78.6 642.8,83.5 C646.9,88 649.8,94.4 651.6,102.8 C652,103.8 651.1,104.8 650,104.8 Z" id="Shape" fill="url(#linearGradient-12)" fill-rule="nonzero"></path>
                <path d="M376.5,70.2 C371.5,63.6 365.1,58.3 357.5,54.3 C349.9,50.3 340.7,48.3 330.1,48.3 C321.8,48.3 314.1,50 307.2,53.2 C300.2,56.5 294.5,61.8 290,69.1 L289.5,69.1 L289.5,53.7 C289.5,52.7 288.7,52 287.8,52 L256,52 C255,52 254.3,52.8 254.3,53.7 L254.3,232.1 C254.3,233.1 255.1,233.8 256,233.8 L289.5,233.8 C290.5,233.8 291.2,233 291.2,232.1 L291.2,170 L291.7,170 C296.2,176.6 302,181.6 309,185 C316,188.4 323.7,190.1 332.1,190.1 C342,190.1 350.6,188.2 358,184.4 C365.4,180.6 371.6,175.5 376.5,169 C381.5,162.6 385.1,155.2 387.6,146.8 C390,138.5 391.2,129.8 391.2,120.7 C391.2,111.1 390,102 387.6,93.2 C385.2,84.5 381.5,76.8 376.5,70.2 Z M352.7,135.6 C351.7,140.8 349.9,145.4 347.4,149.3 C344.9,153.2 341.6,156.4 337.5,158.8 C333.4,161.2 328.3,162.4 322.3,162.4 C316.4,162.4 311.4,161.2 307.2,158.8 C303,156.4 299.7,153.2 297.2,149.3 C294.7,145.4 292.8,140.8 291.7,135.6 C290.6,130.4 290,125.1 290,119.7 C290,114.1 290.5,108.8 291.6,103.5 C292.6,98.3 294.4,93.7 296.9,89.7 C299.4,85.7 302.7,82.4 306.8,79.9 C310.9,77.4 316,76.1 322,76.1 C327.9,76.1 332.9,77.4 337,79.9 C341.1,82.4 344.4,85.7 347,89.8 C349.6,93.9 351.5,98.5 352.6,103.7 C353.7,108.9 354.3,114.2 354.3,119.6 C354.3,125.1 353.8,130.4 352.7,135.6 Z" id="Shape" fill="url(#linearGradient-13)" fill-rule="nonzero"></path>
                <path d="M525.9,72.8 C520.4,65.3 513.4,59.4 504.9,54.9 C496.4,50.5 486.4,48.3 474.9,48.3 C464.7,48.3 455.3,50.1 446.9,53.8 C438.5,57.4 431.2,62.4 425.1,68.8 C419,75.1 414.3,82.7 411,91.3 C407.7,100 406.1,109.4 406.1,119.4 C406.1,129.8 407.7,139.4 410.9,148.1 C414.1,156.8 418.7,164.3 424.6,170.5 C430.5,176.8 437.7,181.6 446.2,185 C454.7,188.4 464.3,190.1 474.9,190.1 C490.2,190.1 503.2,186.6 514,179.7 C524.3,173.1 532,162.3 537.2,147.3 C537.6,146.2 536.8,145 535.6,145 L506.7,145 C506,145 505.3,145.4 505.1,146.1 C503.7,149.9 500.5,153.5 495.6,156.9 C490.2,160.6 483.8,162.5 476.3,162.5 C465.9,162.5 457.9,159.8 452.3,154.4 C447,149.3 444,141.2 443.3,130.2 C443.2,129.2 444,128.3 445,128.3 L538.7,128.3 C539.6,128.3 540.4,127.6 540.4,126.7 C540.9,116.9 540,107.4 537.7,98.4 C535.3,88.8 531.4,80.3 525.9,72.8 Z M501.3,104.8 L445.1,104.8 C444.1,104.8 443.2,103.9 443.4,102.9 C443.7,100.8 444.2,98.5 444.9,96 C445.9,92.7 447.5,89.6 449.8,86.6 C452.1,83.6 455.3,81.2 459.2,79.2 C463.1,77.2 468,76.2 473.9,76.2 C482.9,76.2 489.7,78.6 494.1,83.5 C498.2,88 501.1,94.4 502.9,102.8 C503.2,103.8 502.4,104.8 501.3,104.8 Z" id="Shape" fill="url(#linearGradient-14)" fill-rule="nonzero"></path>
            </g>
        </g>
    </g>
</svg>